<svg id="Layer_6" data-name="Layer 6" xmlns="http://www.w3.org/2000/svg" viewBox="0 0 477.76 452.81"><defs><style>.cls-1{fill:#2f6947;}.cls-2{fill:#b4d458;}</style></defs><path class="cls-1" d="M517.21,327.07l-21.69,10.85-15.89-21.63-28.55-38.84v-26.8Q472.74,278,498,306.2,507.61,316.91,517.21,327.07Z" transform="translate(-78.48 -166.44)"/><path class="cls-1" d="M555.91,334.56l.33,22.33L448.09,437l-19.2-25.92-.35-27,0,0,21.48,28.74,9.94-7.43,48.08-36c14.22-10.64,32.46-24.26,46.68-34.91Z" transform="translate(-78.48 -166.44)"/><path class="cls-1" d="M432.35,327.59l-.15,23.08L401,373.81q-5.58-7.49-11.15-15-4.28-5.76-8.56-11.49-18.27-24.53-36.52-49l-3-4.07L325.52,272.4q.19-13.74.41-27.47l.26,0,14.5,17.61,6.95,10.89.48.51,10,14.39L403,348.93l.18.25,2.17-1.61Z" transform="translate(-78.48 -166.44)"/><path class="cls-1" d="M453,195q.14,11.47.26,22.95l-95.07,70.41-10.9-14.7,1.9-1.42,8.45-6.32,13.69-20.78L387,226.33q8.94-4.5,18.07-9Q429.35,205.53,453,195Z" transform="translate(-78.48 -166.44)"/><path class="cls-2" d="M453,195,391.6,240.51l-15.35,11.38.05.06,11,14.84,45.07,60.79h0l-27,20-2.17,1.61-.18-.25-44.89-60.55-10.9-14.7-.1-.13-7.72-10.41-13.5-18.21L431.8,166.44Z" transform="translate(-78.48 -166.44)"/><polygon class="cls-2" points="477.43 168.11 477.29 168.22 429.65 203.43 381.36 239.12 371.38 246.49 350.07 217.63 350.06 217.62 367.83 204.49 415.56 169.21 428.38 159.74 415.28 142.01 372.6 84.21 372.7 84.14 400.33 63.72 421.56 92.45 461.86 147.03 477.43 168.11"/><path class="cls-1" d="M403.27,446.06l.3,22.76L300.24,545.35,281,519.43l-.36-27,.05,0,17.33,23.17,9.83-12.21,50-26.66Z" transform="translate(-78.48 -166.44)"/><polygon class="cls-1" points="225 353.52 225.3 376.29 121.97 452.81 102.77 426.89 102.42 399.86 102.47 399.84 123.96 428.57 133.89 421.14 181.16 385.77 224.59 353.27 225 353.52"/><path class="cls-1" d="M78.51,428.22l0,0L247.13,572.05l-51.49,40.71L78.81,455.27Z" transform="translate(-78.48 -166.44)"/><path class="cls-1" d="M178.19,394.14l2.05,2.77L191.42,412l66.9,90.44-12.6,9.33-67.27-90.68-.3-27Z" transform="translate(-78.48 -166.44)"/><path class="cls-1" d="M243.21,306.35l0,0L389.51,466.7l-29.17,24.2q-58.41-78.75-116.83-157.49Z" transform="translate(-78.48 -166.44)"/><polygon class="cls-2" points="201.52 112.72 324.89 279.5 236.85 344.64 191.56 378.14 123.37 428.58 32.22 305.36 0 261.8 0.03 261.77 36.81 234.58 58 263.22 69.01 278.11 135.9 368.53 167.24 345.34 179.84 336.02 112.94 245.58 101.76 230.47 99.67 227.64 99.67 227.64 139.68 198.03 219.87 306.42 263.82 273.9 164.72 139.95 201.52 112.72"/></svg>